# xmcd CD database file
#
# Track frame offsets:
#	150
#	11552
#	30904
#	48456
#	68183
#	92484
#	110786
#	136888
#	164265
#	195843
#	204620
#	225171
#	258099
#	291475
#
# Disc length: 4380 seconds
#
# Revision: 1
# Processed by: cddbd v1.4PL0 Copyright (c) Steve Scherf et al.
# Submitted via: CDex 1.50
#
DISCID=b4111a0e
DTITLE=Fat Boy Slim - Live On Brighton Beach
DYEAR=2002
DGENRE=New Age
TTITLE0=Born Slippy (Nuxx) - Right Here Right Now
TTITLE1=Austin's Groove
TTITLE2=Southern Thing
TTITLE3=The Groovy Thang
TTITLE4=Pray
TTITLE5=The Talk
TTITLE6=Where's Your Head At
TTITLE7=Rocket Bass
TTITLE8=Drop Some Drums (Original Version)
TTITLE9=Put Your Hands Up
TTITLE10=3-2-1 Fire
TTITLE11=Star 69
TTITLE12=The Real Life (Fatboy Slim Mix)
TTITLE13=Sunset (Bird Of Prey) - Phat Planet (Album Version) 
EXTD=YEAR: 2002
EXTT0=
EXTT1=
EXTT2=
EXTT3=
EXTT4=
EXTT5=
EXTT6=
EXTT7=
EXTT8=
EXTT9=
EXTT10=
EXTT11=
EXTT12=
EXTT13=
PLAYORDER=
